<svg width="116" height="211" viewBox="0 0 116 211" fill="none" xmlns="http://www.w3.org/2000/svg">
<path fill-rule="evenodd" clip-rule="evenodd" d="M59.0858 66.4689C61.8658 66.4689 64.3474 67.0114 66.5306 68.0964C68.7183 69.186 70.4601 70.6357 71.756 72.4456C73.0447 74.2391 74.0341 76.2333 74.6849 78.3492C75.3407 80.4837 75.6714 82.7065 75.6657 84.9413V96.7987H56.2083C56.7648 95.0678 57.8502 93.5593 59.3087 92.4896C60.7671 91.42 62.5238 90.8442 64.3266 90.8449H70.513V85.885C70.5171 84.6421 70.4082 83.4014 70.1875 82.1786C69.958 80.96 69.572 79.7768 69.0394 78.6589C68.5293 77.5463 67.8318 76.5315 66.978 75.6595C66.1509 74.8253 65.0585 74.1475 63.7009 73.6263C62.34 73.1066 60.8016 72.8467 59.0857 72.8467C51.4014 72.8467 47.6541 77.1913 47.6541 85.885V111.164C47.6546 112.281 47.8731 113.387 48.297 114.418C48.7209 115.45 49.342 116.388 50.1248 117.177C50.9076 117.967 51.8368 118.593 52.8594 119.02C53.8819 119.447 54.9777 119.666 56.0843 119.666V104.312H61.0521V119.666H61.9922C63.0988 119.666 64.1946 119.447 65.2172 119.02C66.2397 118.593 67.1689 117.967 67.9517 117.177C68.7345 116.388 69.3556 115.45 69.7796 114.418C70.2035 113.387 70.4219 112.281 70.4224 111.164V102.611H75.6659V111.737C75.6659 120.744 68.3741 125.615 61.9049 125.615H56.2627C54.4563 125.616 52.6674 125.258 50.9982 124.561C49.3289 123.864 47.8121 122.842 46.5342 121.553C45.2563 120.264 44.2424 118.734 43.5504 117.049C42.8584 115.365 42.5019 113.56 42.5012 111.736V84.9413C42.4886 82.7066 42.7806 80.4808 43.3691 78.3264C43.9521 76.2373 44.8698 74.2585 46.0857 72.4684C47.3198 70.6403 49.0526 69.1829 51.2841 68.0964C53.5171 67.0115 56.1177 66.469 59.0858 66.4689ZM62.7029 83.429C62.6344 84.0626 62.328 84.6456 61.8467 85.0581C61.3654 85.4707 60.7459 85.6814 60.1154 85.647C59.485 85.6125 58.8915 85.3356 58.4571 84.8731C58.0227 84.4105 57.7804 83.7975 57.78 83.1602C57.7795 82.8109 57.8529 82.4655 57.9955 82.1473L62.7029 83.429ZM41.3536 144.531V132.485H37V130.27H48.2343V132.485H43.8809V144.531H41.3536ZM49.8789 144.531H52.4071V134.065H49.8789V144.531ZM49.8789 130.27V132.486H52.4071V130.269L49.8789 130.27ZM79.5322 137.401C79.5516 138.508 79.315 139.604 78.8411 140.603C78.4189 141.494 77.7845 142.266 76.9945 142.849C76.2323 143.404 75.3856 143.829 74.4877 144.109C73.5811 144.391 72.6374 144.533 71.6886 144.531H66.6528V136.163L69.181 137.098V142.315H71.2872C71.8149 142.317 72.3417 142.27 72.861 142.175C73.3782 142.076 73.8805 141.911 74.3554 141.681C74.8274 141.462 75.2584 141.163 75.6291 140.795C76.0127 140.393 76.307 139.912 76.4925 139.386C76.722 138.75 76.8342 138.078 76.8236 137.401C76.8236 134.097 74.9788 132.486 71.2872 132.486H56.9428V136.111H63.4626V138.246H56.9428V142.276H64.1847V144.531H54.4166V130.269H71.6879C72.6367 130.263 73.5817 130.389 74.4967 130.642C75.3833 130.893 76.2234 131.287 76.9842 131.81C77.7891 132.375 78.4299 133.147 78.8407 134.046C79.3013 135.006 79.5321 136.125 79.5322 137.401Z" fill="white"/>
</svg>
